<mxfile host="app.diagrams.net" modified="2020-12-21T13:38:55.617Z" agent="5.0 (Windows)" etag="fLVNMTHFCF1ghi_U3RcH" version="14.1.1" type="github">
  <diagram id="Nxdn1b_2vX5v2sUgJNZZ" name="Page-1">
    <mxGraphModel dx="1038" dy="547" grid="1" gridSize="10" guides="1" tooltips="1" connect="1" arrows="1" fold="1" page="1" pageScale="1" pageWidth="850" pageHeight="1100" math="0" shadow="0">
      <root>
        <mxCell id="0" />
        <mxCell id="1" parent="0" />
        <mxCell id="o0XXjw1o6ZKp6EziVkPJ-1" value="&lt;div align=&quot;center&quot;&gt;&lt;b&gt;&lt;font style=&quot;font-size: 20px&quot;&gt;Gateway&lt;/font&gt;&lt;/b&gt;&lt;/div&gt;" style="rounded=0;whiteSpace=wrap;html=1;fillColor=#dae8fc;strokeColor=#6c8ebf;align=center;" parent="1" vertex="1">
          <mxGeometry x="425" y="60" width="70" height="390" as="geometry" />
        </mxCell>
        <mxCell id="o0XXjw1o6ZKp6EziVkPJ-2" value="Nginx" style="rounded=0;whiteSpace=wrap;html=1;fillColor=#d5e8d4;strokeColor=#82b366;rotation=-90;" parent="1" vertex="1">
          <mxGeometry x="321" y="130" width="90" height="40" as="geometry" />
        </mxCell>
        <mxCell id="o0XXjw1o6ZKp6EziVkPJ-3" value="Nginx" style="rounded=0;whiteSpace=wrap;html=1;fillColor=#d5e8d4;strokeColor=#82b366;rotation=-90;" parent="1" vertex="1">
          <mxGeometry x="321" y="290" width="90" height="40" as="geometry" />
        </mxCell>
        <mxCell id="o0XXjw1o6ZKp6EziVkPJ-4" value="&lt;font style=&quot;font-size: 15px&quot;&gt;ServiceA&lt;/font&gt;" style="rounded=1;whiteSpace=wrap;html=1;fillColor=#e1d5e7;strokeColor=#9673a6;" parent="1" vertex="1">
          <mxGeometry x="555" y="358" width="120" height="58" as="geometry" />
        </mxCell>
        <mxCell id="o0XXjw1o6ZKp6EziVkPJ-5" value="ServiceB" style="rounded=1;whiteSpace=wrap;html=1;fillColor=#e1d5e7;strokeColor=#9673a6;" parent="1" vertex="1">
          <mxGeometry x="720" y="359" width="120" height="58" as="geometry" />
        </mxCell>
        <mxCell id="o0XXjw1o6ZKp6EziVkPJ-6" value="&lt;b&gt;&lt;font style=&quot;font-size: 20px&quot;&gt;Config Center&lt;/font&gt;&lt;/b&gt;" style="rounded=0;whiteSpace=wrap;html=1;fillColor=#dae8fc;strokeColor=#6c8ebf;" parent="1" vertex="1">
          <mxGeometry x="554" y="60" width="450" height="50" as="geometry" />
        </mxCell>
        <mxCell id="o0XXjw1o6ZKp6EziVkPJ-7" value="&lt;div&gt;Zuul&lt;/div&gt;&lt;div&gt;&lt;br&gt;&lt;/div&gt;&lt;div&gt;SpringCloud Gateway&lt;br&gt;&lt;/div&gt;" style="rounded=0;whiteSpace=wrap;html=1;fillColor=#f9f7ed;strokeColor=#36393d;" parent="1" vertex="1">
          <mxGeometry x="425" y="390" width="70" height="60" as="geometry" />
        </mxCell>
        <mxCell id="o0XXjw1o6ZKp6EziVkPJ-8" value="ServiceN" style="rounded=1;whiteSpace=wrap;html=1;fillColor=#e1d5e7;strokeColor=#9673a6;" parent="1" vertex="1">
          <mxGeometry x="875" y="358" width="120" height="58" as="geometry" />
        </mxCell>
        <mxCell id="o0XXjw1o6ZKp6EziVkPJ-9" value="" style="rounded=0;whiteSpace=wrap;html=1;fillColor=#bac8d3;strokeColor=#23445d;" parent="1" vertex="1">
          <mxGeometry x="275" y="470" width="770" height="10" as="geometry" />
        </mxCell>
        <mxCell id="o0XXjw1o6ZKp6EziVkPJ-10" value="MySQL 集群" style="rounded=1;whiteSpace=wrap;html=1;fillColor=#f5f5f5;strokeColor=#666666;gradientColor=#b3b3b3;" parent="1" vertex="1">
          <mxGeometry x="785" y="530" width="90" height="60" as="geometry" />
        </mxCell>
        <mxCell id="o0XXjw1o6ZKp6EziVkPJ-11" value="Redis 集群" style="rounded=1;whiteSpace=wrap;html=1;fillColor=#f5f5f5;strokeColor=#666666;gradientColor=#b3b3b3;" parent="1" vertex="1">
          <mxGeometry x="275" y="530" width="90" height="60" as="geometry" />
        </mxCell>
        <mxCell id="o0XXjw1o6ZKp6EziVkPJ-12" value="&lt;div&gt;Kafka 集群&lt;/div&gt;" style="rounded=1;whiteSpace=wrap;html=1;fillColor=#f5f5f5;strokeColor=#666666;gradientColor=#b3b3b3;" parent="1" vertex="1">
          <mxGeometry x="405" y="530" width="90" height="60" as="geometry" />
        </mxCell>
        <mxCell id="o0XXjw1o6ZKp6EziVkPJ-13" value="&lt;div&gt;ElasticSearch 集群&lt;/div&gt;" style="rounded=1;whiteSpace=wrap;html=1;fillColor=#f5f5f5;strokeColor=#666666;gradientColor=#b3b3b3;" parent="1" vertex="1">
          <mxGeometry x="530" y="530" width="90" height="60" as="geometry" />
        </mxCell>
        <mxCell id="o0XXjw1o6ZKp6EziVkPJ-14" value="&lt;div&gt;Mongo DB集群&lt;/div&gt;" style="rounded=1;whiteSpace=wrap;html=1;fillColor=#f5f5f5;strokeColor=#666666;gradientColor=#b3b3b3;" parent="1" vertex="1">
          <mxGeometry x="655" y="530" width="90" height="60" as="geometry" />
        </mxCell>
        <mxCell id="o0XXjw1o6ZKp6EziVkPJ-15" value="存储" style="rounded=1;whiteSpace=wrap;html=1;fillColor=#f5f5f5;strokeColor=#666666;gradientColor=#b3b3b3;" parent="1" vertex="1">
          <mxGeometry x="915" y="530" width="90" height="60" as="geometry" />
        </mxCell>
        <mxCell id="o0XXjw1o6ZKp6EziVkPJ-16" value="&lt;b&gt;&lt;font style=&quot;font-size: 20px&quot;&gt;Registry Center&lt;/font&gt;&lt;/b&gt;" style="rhombus;whiteSpace=wrap;html=1;" parent="1" vertex="1">
          <mxGeometry x="690" y="170" width="180" height="140" as="geometry" />
        </mxCell>
        <mxCell id="o0XXjw1o6ZKp6EziVkPJ-17" value="LVS + KeepAlived" style="rounded=0;whiteSpace=wrap;html=1;fillColor=#d5e8d4;strokeColor=#82b366;rotation=-90;" parent="1" vertex="1">
          <mxGeometry x="215" y="210" width="160" height="40" as="geometry" />
        </mxCell>
        <mxCell id="o0XXjw1o6ZKp6EziVkPJ-18" value="" style="ellipse;shape=cloud;whiteSpace=wrap;html=1;fillColor=#cce5ff;strokeColor=#36393d;" parent="1" vertex="1">
          <mxGeometry x="175" y="140" width="64" height="180" as="geometry" />
        </mxCell>
        <mxCell id="o0XXjw1o6ZKp6EziVkPJ-19" value="&lt;div&gt;SpringCloud Config&lt;/div&gt;" style="rounded=0;whiteSpace=wrap;html=1;fillColor=#f9f7ed;strokeColor=#36393d;" parent="1" vertex="1">
          <mxGeometry x="850" y="60" width="80" height="50" as="geometry" />
        </mxCell>
        <mxCell id="o0XXjw1o6ZKp6EziVkPJ-20" value="" style="endArrow=classic;html=1;exitX=0.5;exitY=0;exitDx=0;exitDy=0;" parent="1" source="o0XXjw1o6ZKp6EziVkPJ-4" target="o0XXjw1o6ZKp6EziVkPJ-16" edge="1">
          <mxGeometry width="50" height="50" relative="1" as="geometry">
            <mxPoint x="615" y="390" as="sourcePoint" />
            <mxPoint x="665" y="340" as="targetPoint" />
          </mxGeometry>
        </mxCell>
        <mxCell id="o0XXjw1o6ZKp6EziVkPJ-21" value="" style="endArrow=classic;html=1;entryX=0;entryY=0.5;entryDx=0;entryDy=0;exitX=1;exitY=0.462;exitDx=0;exitDy=0;exitPerimeter=0;" parent="1" source="o0XXjw1o6ZKp6EziVkPJ-1" target="o0XXjw1o6ZKp6EziVkPJ-16" edge="1">
          <mxGeometry width="50" height="50" relative="1" as="geometry">
            <mxPoint x="495" y="250" as="sourcePoint" />
            <mxPoint x="545" y="200" as="targetPoint" />
          </mxGeometry>
        </mxCell>
        <mxCell id="o0XXjw1o6ZKp6EziVkPJ-22" value="" style="endArrow=classic;html=1;exitX=0.5;exitY=0;exitDx=0;exitDy=0;" parent="1" source="o0XXjw1o6ZKp6EziVkPJ-8" target="o0XXjw1o6ZKp6EziVkPJ-16" edge="1">
          <mxGeometry width="50" height="50" relative="1" as="geometry">
            <mxPoint x="875" y="350" as="sourcePoint" />
            <mxPoint x="1125" y="270" as="targetPoint" />
          </mxGeometry>
        </mxCell>
        <mxCell id="o0XXjw1o6ZKp6EziVkPJ-23" value="" style="endArrow=classic;html=1;exitX=0.5;exitY=0;exitDx=0;exitDy=0;entryX=0.5;entryY=1;entryDx=0;entryDy=0;" parent="1" source="o0XXjw1o6ZKp6EziVkPJ-5" target="o0XXjw1o6ZKp6EziVkPJ-16" edge="1">
          <mxGeometry width="50" height="50" relative="1" as="geometry">
            <mxPoint x="875" y="371.03" as="sourcePoint" />
            <mxPoint x="982.3253275109168" y="260.00379912663755" as="targetPoint" />
          </mxGeometry>
        </mxCell>
        <mxCell id="o0XXjw1o6ZKp6EziVkPJ-24" value="&lt;div&gt;Zookeeper&lt;br&gt;&lt;/div&gt;&lt;div&gt;Eureka&lt;/div&gt;&lt;div&gt;&lt;b&gt;&lt;font color=&quot;#FF0000&quot;&gt;Nacos&lt;/font&gt;&lt;/b&gt;&lt;br&gt;&lt;/div&gt;" style="triangle;whiteSpace=wrap;html=1;rotation=90;fillColor=#f9f7ed;strokeColor=#36393d;" parent="1" vertex="1">
          <mxGeometry x="748.5" y="201.5" width="62" height="158" as="geometry" />
        </mxCell>
        <mxCell id="o0XXjw1o6ZKp6EziVkPJ-25" value="Sentinel" style="rounded=1;whiteSpace=wrap;html=1;arcSize=17;fillColor=#e1d5e7;strokeColor=#9673a6;" parent="1" vertex="1">
          <mxGeometry x="782.5" y="359" width="60" height="18" as="geometry" />
        </mxCell>
        <mxCell id="o0XXjw1o6ZKp6EziVkPJ-26" value="Hystrux/Sentinel" style="rounded=1;whiteSpace=wrap;html=1;arcSize=17;fillColor=#e1d5e7;strokeColor=#9673a6;" parent="1" vertex="1">
          <mxGeometry x="585" y="398" width="90" height="18" as="geometry" />
        </mxCell>
        <mxCell id="o0XXjw1o6ZKp6EziVkPJ-27" value="&lt;font style=&quot;font-size: 15px&quot;&gt;ServiceA&lt;/font&gt;" style="rounded=1;whiteSpace=wrap;html=1;fillColor=#e1d5e7;strokeColor=#9673a6;" parent="1" vertex="1">
          <mxGeometry x="570" y="378" width="120" height="58" as="geometry" />
        </mxCell>
        <mxCell id="o0XXjw1o6ZKp6EziVkPJ-29" value="Hystrux/Sentinel" style="rounded=1;whiteSpace=wrap;html=1;arcSize=17;fillColor=#e1d5e7;strokeColor=#9673a6;" parent="1" vertex="1">
          <mxGeometry x="600" y="418" width="90" height="18" as="geometry" />
        </mxCell>
        <mxCell id="o0XXjw1o6ZKp6EziVkPJ-30" value="&lt;font style=&quot;font-size: 18px&quot;&gt;&lt;b&gt;&lt;font style=&quot;font-size: 18px&quot;&gt;ServiceA&lt;/font&gt;&lt;/b&gt;&lt;/font&gt;" style="rounded=1;whiteSpace=wrap;html=1;fillColor=#e1d5e7;strokeColor=#9673a6;" parent="1" vertex="1">
          <mxGeometry x="585" y="392" width="120" height="58" as="geometry" />
        </mxCell>
        <mxCell id="o0XXjw1o6ZKp6EziVkPJ-32" value="ServiceB" style="rounded=1;whiteSpace=wrap;html=1;fillColor=#e1d5e7;strokeColor=#9673a6;" parent="1" vertex="1">
          <mxGeometry x="727.5" y="377" width="120" height="58" as="geometry" />
        </mxCell>
        <mxCell id="o0XXjw1o6ZKp6EziVkPJ-33" value="&lt;font style=&quot;font-size: 18px&quot;&gt;&lt;b&gt;&lt;font style=&quot;font-size: 18px&quot;&gt;ServiceB&lt;/font&gt;&lt;/b&gt;&lt;/font&gt;" style="rounded=1;whiteSpace=wrap;html=1;fillColor=#e1d5e7;strokeColor=#9673a6;" parent="1" vertex="1">
          <mxGeometry x="737.5" y="393" width="120" height="58" as="geometry" />
        </mxCell>
        <mxCell id="o0XXjw1o6ZKp6EziVkPJ-34" value="ServiceN" style="rounded=1;whiteSpace=wrap;html=1;fillColor=#e1d5e7;strokeColor=#9673a6;" parent="1" vertex="1">
          <mxGeometry x="885" y="376" width="120" height="58" as="geometry" />
        </mxCell>
        <mxCell id="o0XXjw1o6ZKp6EziVkPJ-35" value="&lt;font style=&quot;font-size: 18px&quot;&gt;&lt;b&gt;&lt;font style=&quot;font-size: 18px&quot;&gt;ServiceN&lt;/font&gt;&lt;/b&gt;&lt;/font&gt;" style="rounded=1;whiteSpace=wrap;html=1;fillColor=#e1d5e7;strokeColor=#9673a6;" parent="1" vertex="1">
          <mxGeometry x="895" y="390" width="120" height="58" as="geometry" />
        </mxCell>
        <mxCell id="o0XXjw1o6ZKp6EziVkPJ-36" value="" style="endArrow=classic;html=1;exitX=0.5;exitY=1;exitDx=0;exitDy=0;entryX=0;entryY=0.25;entryDx=0;entryDy=0;" parent="1" source="o0XXjw1o6ZKp6EziVkPJ-2" target="o0XXjw1o6ZKp6EziVkPJ-1" edge="1">
          <mxGeometry width="50" height="50" relative="1" as="geometry">
            <mxPoint x="615" y="320" as="sourcePoint" />
            <mxPoint x="665" y="270" as="targetPoint" />
          </mxGeometry>
        </mxCell>
        <mxCell id="o0XXjw1o6ZKp6EziVkPJ-37" value="" style="endArrow=classic;html=1;exitX=0.4;exitY=1.025;exitDx=0;exitDy=0;exitPerimeter=0;entryX=0;entryY=0.592;entryDx=0;entryDy=0;entryPerimeter=0;" parent="1" source="o0XXjw1o6ZKp6EziVkPJ-3" target="o0XXjw1o6ZKp6EziVkPJ-1" edge="1">
          <mxGeometry width="50" height="50" relative="1" as="geometry">
            <mxPoint x="615" y="320" as="sourcePoint" />
            <mxPoint x="665" y="270" as="targetPoint" />
          </mxGeometry>
        </mxCell>
        <mxCell id="o0XXjw1o6ZKp6EziVkPJ-38" value="" style="endArrow=classic;html=1;exitX=0.5;exitY=1;exitDx=0;exitDy=0;entryX=0.5;entryY=0;entryDx=0;entryDy=0;" parent="1" source="o0XXjw1o6ZKp6EziVkPJ-17" target="o0XXjw1o6ZKp6EziVkPJ-2" edge="1">
          <mxGeometry width="50" height="50" relative="1" as="geometry">
            <mxPoint x="615" y="320" as="sourcePoint" />
            <mxPoint x="665" y="270" as="targetPoint" />
          </mxGeometry>
        </mxCell>
        <mxCell id="o0XXjw1o6ZKp6EziVkPJ-39" value="" style="endArrow=classic;html=1;entryX=0.5;entryY=0;entryDx=0;entryDy=0;exitX=0.5;exitY=1;exitDx=0;exitDy=0;" parent="1" source="o0XXjw1o6ZKp6EziVkPJ-17" target="o0XXjw1o6ZKp6EziVkPJ-3" edge="1">
          <mxGeometry width="50" height="50" relative="1" as="geometry">
            <mxPoint x="615" y="320" as="sourcePoint" />
            <mxPoint x="665" y="270" as="targetPoint" />
          </mxGeometry>
        </mxCell>
        <mxCell id="o0XXjw1o6ZKp6EziVkPJ-40" value="" style="endArrow=classic;html=1;exitX=0.957;exitY=0.5;exitDx=0;exitDy=0;exitPerimeter=0;" parent="1" source="o0XXjw1o6ZKp6EziVkPJ-18" edge="1">
          <mxGeometry width="50" height="50" relative="1" as="geometry">
            <mxPoint x="615" y="320" as="sourcePoint" />
            <mxPoint x="275" y="230" as="targetPoint" />
          </mxGeometry>
        </mxCell>
        <mxCell id="o0XXjw1o6ZKp6EziVkPJ-41" value="" style="verticalLabelPosition=bottom;html=1;verticalAlign=top;align=center;strokeColor=none;fillColor=#00BEF2;shape=mxgraph.azure.computer;pointerEvents=1;" parent="1" vertex="1">
          <mxGeometry x="65" y="287.5" width="50" height="45" as="geometry" />
        </mxCell>
        <mxCell id="o0XXjw1o6ZKp6EziVkPJ-42" value="" style="image;html=1;image=img/lib/clip_art/computers/Laptop_128x128.png" parent="1" vertex="1">
          <mxGeometry x="65" y="401" width="80" height="80" as="geometry" />
        </mxCell>
        <mxCell id="o0XXjw1o6ZKp6EziVkPJ-43" value="" style="verticalLabelPosition=bottom;html=1;verticalAlign=top;align=center;strokeColor=none;fillColor=#00BEF2;shape=mxgraph.azure.mobile;pointerEvents=1;" parent="1" vertex="1">
          <mxGeometry x="65" y="40" width="35" height="50" as="geometry" />
        </mxCell>
        <mxCell id="o0XXjw1o6ZKp6EziVkPJ-44" value="" style="image;html=1;image=img/lib/clip_art/computers/iPad_128x128.png" parent="1" vertex="1">
          <mxGeometry x="40" y="160" width="85" height="50" as="geometry" />
        </mxCell>
        <mxCell id="o0XXjw1o6ZKp6EziVkPJ-45" value="" style="endArrow=classic;html=1;exitX=1;exitY=0.5;exitDx=0;exitDy=0;exitPerimeter=0;entryX=0.25;entryY=0.25;entryDx=0;entryDy=0;entryPerimeter=0;" parent="1" source="o0XXjw1o6ZKp6EziVkPJ-43" target="o0XXjw1o6ZKp6EziVkPJ-18" edge="1">
          <mxGeometry width="50" height="50" relative="1" as="geometry">
            <mxPoint x="465" y="320" as="sourcePoint" />
            <mxPoint x="535" y="310" as="targetPoint" />
          </mxGeometry>
        </mxCell>
        <mxCell id="o0XXjw1o6ZKp6EziVkPJ-46" value="" style="endArrow=classic;html=1;" parent="1" source="o0XXjw1o6ZKp6EziVkPJ-44" edge="1">
          <mxGeometry width="50" height="50" relative="1" as="geometry">
            <mxPoint x="115" y="200" as="sourcePoint" />
            <mxPoint x="175" y="210" as="targetPoint" />
          </mxGeometry>
        </mxCell>
        <mxCell id="o0XXjw1o6ZKp6EziVkPJ-47" value="" style="endArrow=classic;html=1;exitX=1;exitY=0.5;exitDx=0;exitDy=0;exitPerimeter=0;entryX=0.203;entryY=0.6;entryDx=0;entryDy=0;entryPerimeter=0;" parent="1" source="o0XXjw1o6ZKp6EziVkPJ-41" target="o0XXjw1o6ZKp6EziVkPJ-18" edge="1">
          <mxGeometry width="50" height="50" relative="1" as="geometry">
            <mxPoint x="465" y="320" as="sourcePoint" />
            <mxPoint x="515" y="270" as="targetPoint" />
          </mxGeometry>
        </mxCell>
        <mxCell id="o0XXjw1o6ZKp6EziVkPJ-48" value="" style="endArrow=classic;html=1;" parent="1" source="o0XXjw1o6ZKp6EziVkPJ-42" target="o0XXjw1o6ZKp6EziVkPJ-18" edge="1">
          <mxGeometry width="50" height="50" relative="1" as="geometry">
            <mxPoint x="465" y="320" as="sourcePoint" />
            <mxPoint x="515" y="270" as="targetPoint" />
          </mxGeometry>
        </mxCell>
        <mxCell id="o0XXjw1o6ZKp6EziVkPJ-49" value="ZipKin" style="rounded=1;whiteSpace=wrap;html=1;fillColor=#dae8fc;strokeColor=#6c8ebf;" parent="1" vertex="1">
          <mxGeometry x="1115" y="150" width="80" height="50" as="geometry" />
        </mxCell>
        <mxCell id="o0XXjw1o6ZKp6EziVkPJ-50" value="" style="rounded=0;whiteSpace=wrap;html=1;rotation=90;fillColor=#f9f7ed;strokeColor=#36393d;" parent="1" vertex="1">
          <mxGeometry x="800" y="320" width="530" height="10" as="geometry" />
        </mxCell>
        <mxCell id="o0XXjw1o6ZKp6EziVkPJ-51" value="Security" style="rounded=1;whiteSpace=wrap;html=1;fillColor=#dae8fc;strokeColor=#6c8ebf;" parent="1" vertex="1">
          <mxGeometry x="1115" y="60" width="80" height="50" as="geometry" />
        </mxCell>
        <mxCell id="o0XXjw1o6ZKp6EziVkPJ-52" value="Seata" style="rounded=1;whiteSpace=wrap;html=1;fillColor=#dae8fc;strokeColor=#6c8ebf;" parent="1" vertex="1">
          <mxGeometry x="1115" y="425" width="80" height="50" as="geometry" />
        </mxCell>
        <mxCell id="o0XXjw1o6ZKp6EziVkPJ-53" value="Elastic Stack" style="rounded=1;whiteSpace=wrap;html=1;fillColor=#dae8fc;strokeColor=#6c8ebf;" parent="1" vertex="1">
          <mxGeometry x="1115" y="533" width="80" height="50" as="geometry" />
        </mxCell>
        <mxCell id="o0XXjw1o6ZKp6EziVkPJ-54" value="Prometheus" style="rounded=1;whiteSpace=wrap;html=1;fillColor=#dae8fc;strokeColor=#6c8ebf;" parent="1" vertex="1">
          <mxGeometry x="1115" y="327.5" width="80" height="50" as="geometry" />
        </mxCell>
        <mxCell id="o0XXjw1o6ZKp6EziVkPJ-55" value="&lt;div&gt;Hystrix/&lt;/div&gt;&lt;div&gt;Sentinel&lt;br&gt;&lt;/div&gt;" style="rounded=1;whiteSpace=wrap;html=1;fillColor=#dae8fc;strokeColor=#6c8ebf;" parent="1" vertex="1">
          <mxGeometry x="1115" y="240" width="80" height="50" as="geometry" />
        </mxCell>
        <mxCell id="o0XXjw1o6ZKp6EziVkPJ-56" value="" style="endArrow=classic;html=1;exitX=0.5;exitY=1;exitDx=0;exitDy=0;entryX=0.5;entryY=0;entryDx=0;entryDy=0;" parent="1" source="o0XXjw1o6ZKp6EziVkPJ-6" target="o0XXjw1o6ZKp6EziVkPJ-16" edge="1">
          <mxGeometry width="50" height="50" relative="1" as="geometry">
            <mxPoint x="725" y="230" as="sourcePoint" />
            <mxPoint x="775" y="180" as="targetPoint" />
          </mxGeometry>
        </mxCell>
        <mxCell id="o0XXjw1o6ZKp6EziVkPJ-57" value="Zookeeper" style="rounded=0;whiteSpace=wrap;html=1;fillColor=#f9f7ed;strokeColor=#36393d;" parent="1" vertex="1">
          <mxGeometry x="925" y="60" width="80" height="50" as="geometry" />
        </mxCell>
        <mxCell id="o0XXjw1o6ZKp6EziVkPJ-58" value="&lt;div&gt;&lt;font color=&quot;#FF3333&quot;&gt;&lt;b&gt;Nacos&lt;/b&gt;&lt;/font&gt;&lt;/div&gt;" style="rounded=0;whiteSpace=wrap;html=1;fillColor=#f9f7ed;strokeColor=#36393d;" parent="1" vertex="1">
          <mxGeometry x="550" y="60" width="80" height="50" as="geometry" />
        </mxCell>
        <mxCell id="o0XXjw1o6ZKp6EziVkPJ-59" value="Consul" style="rounded=0;whiteSpace=wrap;html=1;fillColor=#f9f7ed;strokeColor=#36393d;" parent="1" vertex="1">
          <mxGeometry x="625" y="60" width="80" height="50" as="geometry" />
        </mxCell>
        <mxCell id="o0XXjw1o6ZKp6EziVkPJ-63" value="&lt;font color=&quot;#FF0000&quot;&gt;&lt;b&gt;Rest Template&lt;/b&gt;&lt;/font&gt;" style="rounded=1;whiteSpace=wrap;html=1;arcSize=17;fillColor=#e1d5e7;strokeColor=#9673a6;" parent="1" vertex="1">
          <mxGeometry x="580" y="358" width="95" height="18" as="geometry" />
        </mxCell>
        <mxCell id="o0XXjw1o6ZKp6EziVkPJ-64" value="&lt;b&gt;&lt;font color=&quot;#FF0000&quot;&gt;Sentinel&lt;/font&gt;&lt;/b&gt;" style="rounded=1;whiteSpace=wrap;html=1;arcSize=17;fillColor=#e1d5e7;strokeColor=#9673a6;" parent="1" vertex="1">
          <mxGeometry x="782.5" y="359" width="60" height="18" as="geometry" />
        </mxCell>
        <mxCell id="o0XXjw1o6ZKp6EziVkPJ-65" value="Feign" style="rounded=1;whiteSpace=wrap;html=1;arcSize=17;fillColor=#e1d5e7;strokeColor=#9673a6;" parent="1" vertex="1">
          <mxGeometry x="935" y="358" width="60" height="18" as="geometry" />
        </mxCell>
        <mxCell id="o0XXjw1o6ZKp6EziVkPJ-70" value="&lt;div&gt;Seata&lt;/div&gt;" style="rounded=1;whiteSpace=wrap;html=1;arcSize=17;fillColor=#e1d5e7;strokeColor=#9673a6;" parent="1" vertex="1">
          <mxGeometry x="955" y="390" width="60" height="18" as="geometry" />
        </mxCell>
      </root>
    </mxGraphModel>
  </diagram>
</mxfile>
